<svg width="233" height="16" viewBox="0 0 233 16" fill="none" xmlns="http://www.w3.org/2000/svg">
<path d="M23.2929 8.70711C22.9024 8.31658 22.9024 7.68342 23.2929 7.29289L29.6569 0.928932C30.0474 0.538408 30.6805 0.538408 31.0711 0.928932C31.4616 1.31946 31.4616 1.95262 31.0711 2.34315L25.4142 8L31.0711 13.6569C31.4616 14.0474 31.4616 14.6805 31.0711 15.0711C30.6805 15.4616 30.0474 15.4616 29.6569 15.0711L23.2929 8.70711ZM64 9H24V7H64V9Z" fill="white"/>
<path d="M232.707 8.70711C233.098 8.31658 233.098 7.68342 232.707 7.29289L226.343 0.928932C225.953 0.538408 225.319 0.538408 224.929 0.928932C224.538 1.31946 224.538 1.95262 224.929 2.34315L230.586 8L224.929 13.6569C224.538 14.0474 224.538 14.6805 224.929 15.0711C225.319 15.4616 225.953 15.4616 226.343 15.0711L232.707 8.70711ZM192 9H232V7H192V9Z" fill="white"/>
</svg>
