<svg width="98" height="20" viewBox="0 0 98 20" fill="none" xmlns="http://www.w3.org/2000/svg">
<g clip-path="url(#clip0_19_1987)">
<path d="M7.95209 6.87367C7.95209 6.82287 7.95209 6.08377 7.95209 6.08377H7.52523C7.52523 6.08377 7.52523 6.8114 7.52523 6.83437C7.52523 6.96874 7.40419 7.05887 7.20032 7.05887C6.98689 7.05887 6.87062 6.972 6.87062 6.8327C6.87062 6.80977 6.87062 6.08377 6.87062 6.08377H6.43896C6.43896 6.08377 6.43896 6.7737 6.43896 6.8327C6.43896 7.22274 6.74955 7.38827 7.18279 7.38827C7.64629 7.38827 7.95209 7.2211 7.95209 6.87367Z" fill="#222222"/>
<path d="M9.38976 7.37024V7.02774H8.62843V6.08377H8.19678V7.37024H9.38976Z" fill="#222222"/>
<path d="M10.6726 6.40664V6.08377H9.18018V6.40664H9.70737V7.37024H10.1438V6.40664H10.6726Z" fill="#222222"/>
<path d="M11.2466 7.37024V6.08377H10.8081V7.37024H11.2466Z" fill="#222222"/>
<path d="M13.2559 7.37024V6.08377H12.7159L12.3751 6.85567L12.0502 6.08377H11.4927V7.37024H11.8988V6.6754L12.1919 7.37024H12.5551L12.8513 6.6754V7.37024H13.2559Z" fill="#222222"/>
<path d="M13.9322 7.1326H14.6076L14.7175 7.37024H15.1778L14.5471 6.08377H14.0326L13.3652 7.37024H13.816L13.9322 7.1326ZM14.4722 6.84417H14.0724L14.2301 6.53444L14.2779 6.41647L14.3225 6.5328L14.4722 6.84417Z" fill="#222222"/>
<path d="M16.5319 6.40664V6.08377H15.0396V6.40664H15.5667V7.37024H16.0032V6.40664H16.5319Z" fill="#222222"/>
<path d="M17.9829 7.37024V7.05067H17.0865V6.8835H17.9463V6.5705H17.0865V6.40497H17.9719V6.08377H16.666V7.37024H17.9829Z" fill="#222222"/>
<path d="M9.6939 8.05411H9.28136C9.28136 8.05411 9.01217 8.86367 9.01217 8.88334C9.01217 8.86367 8.76052 8.05411 8.76052 8.05411H8.31296C8.31296 8.05411 8.06289 8.86367 8.06289 8.88334C8.06289 8.86367 7.79211 8.05411 7.79211 8.05411H7.32861L7.79691 9.34057H8.26358C8.26358 9.34057 8.51524 8.57197 8.51683 8.55067C8.51842 8.57197 8.76849 9.34057 8.76849 9.34057H9.23675L9.6939 8.05411Z" fill="#222222"/>
<path d="M10.2593 9.34057V8.05411H9.8208V9.34057H10.2593Z" fill="#222222"/>
<path d="M11.9623 9.34057V8.05411H11.5545V8.75387L10.9541 8.05411H10.5049V9.34057H10.9158V8.62441L11.5354 9.34057H11.9623Z" fill="#222222"/>
<path d="M13.6688 9.34057V8.05411H13.261V8.75387L12.6606 8.05411H12.2114V9.34057H12.6223V8.62441L13.2419 9.34057H13.6688Z" fill="#222222"/>
<path d="M15.2347 9.34057V9.02101H14.338V8.85384H15.1981V8.54084H14.338V8.37531H15.2236V8.05411H13.9175V9.34057H15.2347Z" fill="#222222"/>
<path d="M16.9183 8.44577C16.9183 8.32944 16.8911 8.24584 16.8338 8.18521C16.7589 8.10327 16.63 8.05411 16.4324 8.05411H15.437V9.34057H15.8623V8.88664H16.2493L16.56 9.34057H17.0346L16.6572 8.81614C16.7414 8.80304 16.8101 8.75061 16.8545 8.68834C16.8943 8.63097 16.9183 8.54574 16.9183 8.44577ZM16.5043 8.48674C16.5043 8.50807 16.5011 8.53427 16.4897 8.55394C16.4738 8.58671 16.4324 8.59984 16.364 8.59984H15.8639V8.36547H16.3559C16.423 8.36547 16.4677 8.37694 16.4897 8.41957C16.5011 8.43594 16.5043 8.46217 16.5043 8.48674Z" fill="#222222"/>
<path d="M8.13154 10.6062C8.13154 10.5852 8.13154 9.9776 8.13154 9.9776H7.98242C7.98242 9.9776 7.98242 10.5827 7.98242 10.5963C7.98242 10.7423 7.84891 10.8253 7.65647 10.8253C7.42918 10.8253 7.31731 10.7362 7.31731 10.5951C7.31731 10.5815 7.31731 9.9776 7.31731 9.9776H7.16699C7.16699 9.9776 7.16699 10.5666 7.16699 10.5901C7.16699 10.8475 7.36183 10.9614 7.65048 10.9614C7.94873 10.9614 8.13154 10.8401 8.13154 10.6062Z" fill="#222222"/>
<path d="M9.20274 10.949V10.8067H8.55137V9.9776H8.40088V10.949H9.20274Z" fill="#222222"/>
<path d="M10.0558 10.1187V9.9776H9.05273V10.1187H9.47849V10.949H9.63004V10.1187H10.0558Z" fill="#222222"/>
<path d="M11.1251 10.2523C11.1251 10.183 11.1107 10.1323 11.0854 10.0914C11.0409 10.0234 10.9555 9.9776 10.8136 9.9776H10.2026V10.949H10.3506V10.5394H10.7811L11.0445 10.949H11.2177L10.9327 10.5134C11.0048 10.5048 11.0613 10.4627 11.0914 10.4082C11.1131 10.3711 11.1251 10.3167 11.1251 10.2523ZM10.9759 10.2647C10.9759 10.2919 10.97 10.3253 10.9591 10.3476C10.9399 10.3835 10.8954 10.402 10.8232 10.4033H10.3518C10.3518 10.4008 10.3518 10.1162 10.3518 10.1162H10.7956C10.8858 10.1162 10.9339 10.1385 10.9591 10.1805C10.97 10.2003 10.9759 10.2337 10.9759 10.2647Z" fill="#222222"/>
<path d="M11.5527 10.7089H12.1408L12.2611 10.949H12.4223L11.9436 9.9776H11.7668L11.2725 10.949H11.43L11.5527 10.7089ZM12.0783 10.5716H11.6176L11.8089 10.1991L11.851 10.1088L11.8931 10.1991L12.0783 10.5716Z" fill="#222222"/>
<path d="M13.9478 10.8562C13.9851 10.8116 14.0019 10.7485 14.0019 10.6805C14.0019 10.6161 13.9839 10.5518 13.9466 10.5122C13.9093 10.4751 13.8492 10.4441 13.783 10.4379C13.8215 10.4317 13.8516 10.407 13.872 10.381C13.9045 10.3426 13.9237 10.2808 13.9237 10.2189C13.9237 10.1533 13.9045 10.0939 13.8636 10.0531C13.8191 10.0073 13.7433 9.9776 13.6375 9.9776H13.0024V10.949H13.6844C13.8119 10.949 13.9009 10.9156 13.9478 10.8562ZM13.7686 10.2498C13.7686 10.2931 13.7553 10.3315 13.7325 10.3538C13.7096 10.3798 13.6711 10.3909 13.6303 10.3909H13.1492V10.1112H13.6026C13.6579 10.1112 13.7 10.1224 13.7289 10.1496C13.7541 10.1743 13.7686 10.2102 13.7686 10.2498ZM13.8167 10.7621C13.7866 10.7968 13.7349 10.8141 13.6591 10.8141H13.1492V10.5258H13.6628C13.7325 10.5258 13.7806 10.5406 13.8095 10.5691C13.8359 10.5951 13.8468 10.6285 13.8468 10.6669C13.8468 10.7065 13.8383 10.7399 13.8167 10.7621Z" fill="#222222"/>
<path d="M15.0947 10.949V10.8067H14.3603V10.5295H15.0658V10.3884H14.3603V10.1187H15.0863V9.9776H14.2134V10.949H15.0947Z" fill="#222222"/>
<path d="M16.2688 10.6619C16.2688 10.5035 16.1667 10.4218 15.9153 10.3921C15.8731 10.386 15.7817 10.3761 15.7324 10.3699C15.4991 10.3414 15.4281 10.3092 15.4281 10.2263C15.4281 10.1459 15.5063 10.1001 15.742 10.1001C15.9247 10.1001 16.0187 10.1372 16.0657 10.204C16.0789 10.2226 16.0861 10.2449 16.0896 10.2622H16.2506C16.2461 10.2337 16.2351 10.1941 16.2182 10.162C16.1535 10.0469 16.02 9.96397 15.742 9.96397C15.4101 9.96273 15.273 10.0865 15.273 10.2399C15.273 10.3934 15.38 10.4713 15.6578 10.5048C15.706 10.5109 15.7913 10.5208 15.8334 10.5258C16.0488 10.553 16.1162 10.5864 16.1162 10.6792C16.1162 10.7646 16.0391 10.8265 15.7925 10.8265C15.5905 10.8265 15.4822 10.7894 15.4389 10.7176C15.4257 10.6978 15.4173 10.6669 15.4161 10.6458H15.2573C15.261 10.6904 15.273 10.7386 15.2946 10.777C15.3572 10.8946 15.5039 10.9626 15.7877 10.9626C16.1269 10.9626 16.2688 10.85 16.2688 10.6619Z" fill="#222222"/>
<path d="M17.3472 10.1187V9.9776H16.3442V10.1187H16.7699V10.949H16.9215V10.1187H17.3472Z" fill="#222222"/>
<path d="M6.74134 11.7933C6.74134 11.6943 6.72209 11.6275 6.6896 11.5768C6.64392 11.5037 6.55489 11.4654 6.39974 11.4654H5.80322V12.4368H5.95235V12.12C5.95235 12.12 6.37331 12.12 6.39375 12.12C6.53928 12.1188 6.63909 12.0841 6.69203 12.0049C6.72569 11.9567 6.74134 11.8874 6.74134 11.7933ZM6.58978 11.7933C6.58978 11.8428 6.58496 11.8799 6.56934 11.9047C6.54167 11.9505 6.48514 11.9789 6.36848 11.9789C6.35766 11.9789 5.95235 11.9789 5.95235 11.9789V11.604H6.37331C6.48274 11.604 6.53928 11.63 6.56934 11.6807C6.58376 11.703 6.58978 11.7438 6.58978 11.7933Z" fill="#222222"/>
<path d="M7.83106 12.4368V12.2945H7.09659V12.0173H7.80216V11.8762H7.09659V11.6065H7.82263V11.4654H6.94971V12.4368H7.83106Z" fill="#222222"/>
<path d="M8.97715 11.7401C8.97715 11.6708 8.96274 11.6201 8.93747 11.5792C8.89295 11.5112 8.80759 11.4654 8.66566 11.4654H8.05469V12.4368H8.20261V12.0272H8.6332L8.89658 12.4368H9.06977L8.78472 12.0012C8.8569 11.9926 8.91343 11.9505 8.94349 11.896C8.96513 11.8589 8.97715 11.8045 8.97715 11.7401ZM8.82803 11.7525C8.82803 11.7797 8.822 11.8131 8.81118 11.8354C8.79194 11.8713 8.74743 11.8898 8.67528 11.8911H8.20381C8.20381 11.8886 8.20381 11.604 8.20381 11.604H8.64761C8.7378 11.604 8.78591 11.6263 8.81118 11.6683C8.822 11.6881 8.82803 11.7215 8.82803 11.7525Z" fill="#222222"/>
<path d="M10.0934 11.6065V11.4654H9.25293V12.4368H9.40222V12.0235H10.0621V11.8787H9.40222V11.6065H10.0934Z" fill="#222222"/>
<path d="M10.7766 11.4481C10.5757 11.4481 10.4374 11.4988 10.3388 11.6052C10.2558 11.6881 10.2197 11.8032 10.2197 11.948C10.2197 12.1064 10.2666 12.2252 10.3532 12.3056C10.4459 12.4009 10.5878 12.4504 10.7766 12.4504C10.9714 12.4504 11.1229 12.4009 11.2132 12.3007C11.2913 12.219 11.3322 12.1027 11.3322 11.9468C11.3322 11.7958 11.2973 11.6807 11.2144 11.599C11.1194 11.4976 10.9774 11.4481 10.7766 11.4481ZM10.7766 12.3118C10.6443 12.3118 10.5505 12.2821 10.4795 12.2227C10.4074 12.1621 10.3725 12.0693 10.3725 11.9505C10.3725 11.8391 10.4025 11.7463 10.4603 11.6906C10.5264 11.6263 10.6274 11.5879 10.7754 11.5879C10.9281 11.5879 11.0231 11.625 11.0941 11.6894C11.1542 11.7438 11.1807 11.8403 11.1807 11.9492C11.1807 12.0594 11.153 12.1534 11.0917 12.2103C11.0207 12.2784 10.9209 12.3118 10.7766 12.3118Z" fill="#222222"/>
<path d="M12.461 11.7401C12.461 11.6708 12.4466 11.6201 12.4214 11.5792C12.3768 11.5112 12.2914 11.4654 12.1495 11.4654H11.5386V12.4368H11.6865V12.0272H12.1171L12.3805 12.4368H12.5536L12.2686 12.0012C12.3407 11.9926 12.3973 11.9505 12.4273 11.896C12.449 11.8589 12.461 11.8045 12.461 11.7401ZM12.3119 11.7525C12.3119 11.7797 12.3059 11.8131 12.2951 11.8354C12.2758 11.8713 12.2313 11.8898 12.1592 11.8911H11.6877C11.6877 11.8886 11.6877 11.604 11.6877 11.604H12.1315C12.2217 11.604 12.2698 11.6263 12.2951 11.6683C12.3059 11.6881 12.3119 11.7215 12.3119 11.7525Z" fill="#222222"/>
<path d="M13.8993 12.4368V11.4654H13.7045L13.316 12.2648L12.9348 11.4654H12.7363V12.4368H12.8795V11.6894L13.2354 12.4368H13.3918L13.7562 11.6894V12.4368H13.8993Z" fill="#222222"/>
<path d="M14.3217 12.1967H14.9099L15.0301 12.4368H15.1913L14.7126 11.4654H14.5358L14.0415 12.4368H14.199L14.3217 12.1967ZM14.8473 12.0594H14.3867L14.5779 11.6869L14.62 11.5966L14.6621 11.6869L14.8473 12.0594Z" fill="#222222"/>
<path d="M16.275 12.4368V11.4654H16.1318V12.2202L15.5065 11.4654H15.3369V12.4368H15.4824V11.677L16.1127 12.4368H16.275Z" fill="#222222"/>
<path d="M17.5722 12.0742H17.4157C17.4109 12.1188 17.394 12.1633 17.3639 12.1967C17.2991 12.2747 17.1958 12.3081 17.037 12.3081C16.9036 12.3081 16.7604 12.2697 16.6917 12.1695C16.6557 12.1225 16.6327 12.0532 16.6327 11.9492C16.6327 11.8564 16.6486 11.7871 16.6833 11.7401C16.7409 11.6448 16.8624 11.5953 17.0335 11.5953C17.1993 11.5953 17.304 11.6423 17.3594 11.7079C17.3905 11.7426 17.4086 11.7834 17.4145 11.8317H17.5709C17.5661 11.7772 17.5492 11.7129 17.5133 11.6584C17.4362 11.5409 17.2943 11.4481 17.0344 11.4481C16.7869 11.4481 16.6389 11.5297 16.5569 11.6522C16.5041 11.7228 16.4775 11.8218 16.4775 11.948C16.4775 12.0891 16.5103 12.193 16.5666 12.266C16.6486 12.3811 16.806 12.4504 17.0442 12.4504C17.2884 12.4504 17.4339 12.3749 17.5061 12.2549C17.547 12.1967 17.5674 12.1274 17.5722 12.0742Z" fill="#222222"/>
<path d="M18.6496 12.4368V12.2945H17.915V12.0173H18.6207V11.8762H17.915V11.6065H18.6411V11.4654H17.7681V12.4368H18.6496Z" fill="#222222"/>
<path d="M7.64963 13.4018L7.8295 13.9714H8.41157L7.94069 14.3234L8.12055 14.893L7.64963 14.541L7.17872 14.893L7.35861 14.3234L6.8877 13.9714H7.46977L7.64963 13.4018Z" fill="#222222"/>
<path d="M9.72573 13.4018L9.90926 13.9714H10.5032L10.0227 14.3234L10.2062 14.893L9.72573 14.541L9.24522 14.893L9.42875 14.3234L8.94824 13.9714H9.5422L9.72573 13.4018Z" fill="#222222"/>
<path d="M11.7858 13.4018L11.9694 13.9714H12.5633L12.0828 14.3234L12.2663 14.893L11.7858 14.541L11.3053 14.893L11.4888 14.3234L11.0083 13.9714H11.6023L11.7858 13.4018Z" fill="#222222"/>
<path d="M13.8463 13.4018L14.0299 13.9714H14.6238L14.1433 14.3234L14.3268 14.893L13.8463 14.541L13.3658 14.893L13.5494 14.3234L13.0688 13.9714H13.6628L13.8463 13.4018Z" fill="#222222"/>
<path d="M15.9226 13.4018L16.1024 13.9714H16.6846L16.2135 14.3234L16.3933 14.893L15.9226 14.541L15.4517 14.893L15.6316 14.3234L15.1606 13.9714H15.7427L15.9226 13.4018Z" fill="#222222"/>
<path d="M8.65811 3.79205L8.79411 4.22272H9.23422L8.87818 4.48889L9.01418 4.91952L8.65811 4.65339L8.30207 4.91952L8.43807 4.48889L8.08203 4.22272H8.52214L8.65811 3.79205Z" fill="#222222"/>
<path d="M10.2285 3.79147L10.3673 4.22214H10.8163L10.453 4.48831L10.5918 4.91894L10.2285 4.65277L9.86517 4.91894L10.004 4.48831L9.64062 4.22214H10.0897L10.2285 3.79147Z" fill="#222222"/>
<path d="M11.7861 3.79147L11.9249 4.22214H12.374L12.0107 4.48831L12.1494 4.91894L11.7861 4.65277L11.4228 4.91894L11.5616 4.48831L11.1982 4.22214H11.6473L11.7861 3.79147Z" fill="#222222"/>
<path d="M13.3437 3.79147L13.4825 4.22214H13.9316L13.5683 4.48831L13.707 4.91894L13.3437 4.65277L12.9804 4.91894L13.1192 4.48831L12.7559 4.22214H13.2049L13.3437 3.79147Z" fill="#222222"/>
<path d="M14.9135 3.79147L15.0495 4.22214H15.4896L15.1336 4.48831L15.2696 4.91894L14.9135 4.65277L14.5574 4.91894L14.6934 4.48831L14.3374 4.22214H14.7775L14.9135 3.79147Z" fill="#222222"/>
<path fill-rule="evenodd" clip-rule="evenodd" d="M2.38958 11.5435C1.7894 7.67983 3.54103 3.85723 7.04768 2.2157L7.08005 2.2889C3.60867 3.9139 1.87153 7.6991 2.46675 11.5308C3.12528 15.7699 6.44899 18.3122 10.5192 18.4348L10.5169 18.5152C6.41498 18.3916 3.05488 15.8263 2.38958 11.5435Z" fill="#222222"/>
<path d="M6.28759 3.20172C5.63956 3.21692 4.88112 3.59292 4.43359 4.13905C4.79248 4.48195 5.36992 4.35519 5.78548 4.28505C6.37856 4.18499 7.00926 3.99112 7.56892 3.71669C7.3388 3.21269 6.71892 3.19162 6.28759 3.20172Z" fill="#222222"/>
<path d="M5.77768 2.37921C5.39384 2.99441 4.9364 3.60584 4.43859 4.14428C4.0221 3.74201 4.2735 3.07258 4.44349 2.65628C4.75142 1.90194 5.48971 1.25144 6.26156 0.91861C6.4734 1.41451 6.01327 2.00161 5.77768 2.37921Z" fill="#222222"/>
<path d="M4.41248 4.92688C3.80568 5.14882 3.28426 5.77355 3.02246 6.40075C3.45878 6.60948 3.95481 6.30805 4.31768 6.10735C4.81594 5.83175 5.32428 5.45149 5.72425 5.01142C5.36287 4.61908 4.81413 4.78002 4.41248 4.92688Z" fill="#222222"/>
<path d="M3.67659 4.31218C3.54377 5.01385 3.32107 5.74111 3.02859 6.40398C2.51808 6.15625 2.53752 5.44671 2.55939 4.99518C2.59671 4.22448 3.01576 3.34561 3.5992 2.78708C3.95637 3.18108 3.76121 3.86521 3.67659 4.31218Z" fill="#222222"/>
<path d="M3.24489 7.15417C2.73927 7.56457 2.4328 8.32513 2.36182 9.0043C2.84012 9.0608 3.22244 8.61293 3.50691 8.30567C3.89421 7.8873 4.26085 7.36257 4.49368 6.8136C4.03773 6.55767 3.57423 6.88683 3.24489 7.15417Z" fill="#222222"/>
<path d="M2.36876 6.80771C2.45893 7.51628 2.45912 8.28284 2.36893 9.00524C1.81267 8.93494 1.62818 8.24774 1.51919 7.81664C1.33103 7.07251 1.45719 6.11131 1.82372 5.38791C2.28178 5.64881 2.31116 6.35481 2.36876 6.80771Z" fill="#222222"/>
<path d="M2.84768 9.58532C2.44758 10.1884 2.30688 11.1334 2.48681 11.893C3.01552 11.7642 3.27761 11.1483 3.48806 10.7133C3.76774 10.1352 4.00414 9.46078 4.08876 8.79908C3.51531 8.67628 3.11122 9.18805 2.84768 9.58532Z" fill="#222222"/>
<path d="M1.7975 9.52437C2.10923 10.2669 2.35249 11.0842 2.49484 11.8912C1.88847 12.0252 1.45206 11.3701 1.19852 10.9357C0.747137 10.1624 0.615639 9.09044 0.780992 8.16537C1.33598 8.27987 1.60756 9.07204 1.7975 9.52437Z" fill="#222222"/>
<path d="M3.12793 12.209C2.91311 12.9406 3.06242 13.9351 3.49738 14.6228C3.97536 14.3026 4.04152 13.5979 4.10926 13.0926C4.19858 12.4258 4.24063 11.6871 4.12967 10.9957C3.51831 11.076 3.27141 11.7203 3.12793 12.209Z" fill="#222222"/>
<path d="M2.06537 12.5222C2.60173 13.1554 3.0965 13.8774 3.50453 14.6181C2.95113 14.9735 2.30174 14.4879 1.90789 14.1442C1.20919 13.5346 0.755506 12.4984 0.647949 11.5216C1.22941 11.4412 1.74183 12.1402 2.06537 12.5222Z" fill="#222222"/>
<path d="M4.25507 14.6989C4.30117 15.5504 4.83996 16.4439 5.55735 16.9525C5.9038 16.4644 5.68665 15.7167 5.56846 15.1947C5.40936 14.4919 5.18916 13.7601 4.86192 13.1108C4.29129 13.4211 4.22471 14.1381 4.25507 14.6989Z" fill="#222222"/>
<path d="M3.29011 15.4182C4.06734 15.8625 4.84234 16.3869 5.56291 16.9449C5.13138 17.5295 4.26885 17.2964 3.73417 17.1085C2.79195 16.7773 1.95193 15.9043 1.51318 14.9344C2.06947 14.6396 2.83099 15.1557 3.29011 15.4182Z" fill="#222222"/>
<path d="M6.46867 16.7791C6.93515 17.6551 7.99818 18.2265 8.99924 18.3641C9.10699 17.7273 8.43732 17.0968 8.0724 16.6843C7.55286 16.0971 7.01148 15.4877 6.40449 14.9799C5.94974 15.5232 6.19015 16.2562 6.46867 16.7791Z" fill="#222222"/>
<path d="M5.80265 17.8893C6.86302 18.0027 7.94138 18.166 9.00114 18.3543C8.89997 19.1578 7.66076 19.2874 7.09819 19.3349C5.94471 19.4321 4.66154 18.9551 3.76807 18.1519C4.21184 17.6147 5.23781 17.8289 5.80265 17.8893Z" fill="#222222"/>
<path d="M7.84508 1.54134C7.13316 1.7503 6.29985 2.14674 5.88818 2.87854C6.63541 2.79474 7.36982 2.52117 8.08802 2.31274C8.8925 2.07924 9.73957 1.9046 10.5185 1.5823C9.66545 1.23117 8.65992 1.30214 7.84508 1.54134Z" fill="#222222"/>
<path fill-rule="evenodd" clip-rule="evenodd" d="M21.6178 11.5308C22.2129 7.6991 20.4758 3.91396 17.0045 2.2889L17.0369 2.2157C20.5435 3.85726 22.2952 7.67983 21.6949 11.5435C21.0298 15.8263 17.6696 18.3916 13.5677 18.5152L13.5654 18.4348C17.6356 18.3122 20.9591 15.7699 21.6178 11.5308Z" fill="#222222"/>
<path d="M17.7969 3.20172C18.4449 3.21692 19.2033 3.59292 19.651 4.13905C19.292 4.48195 18.7144 4.35519 18.2991 4.28505C17.7059 4.18499 17.0751 3.99112 16.5156 3.71669C16.7456 3.21269 17.3654 3.19162 17.7969 3.20172Z" fill="#222222"/>
<path d="M18.3069 2.37921C18.6908 2.99441 19.1482 3.60584 19.6458 4.14428C20.0624 3.74201 19.811 3.07258 19.641 2.65628C19.3332 1.90194 18.5949 1.25144 17.8229 0.91861C17.611 1.41451 18.0713 2.00161 18.3069 2.37921Z" fill="#222222"/>
<path d="M19.6726 4.92688C20.2794 5.14882 20.8006 5.77355 21.0624 6.40075C20.626 6.60948 20.13 6.30805 19.7672 6.10735C19.2689 5.83175 18.7606 5.45149 18.3608 5.01142C18.7221 4.61908 19.2709 4.78002 19.6726 4.92688Z" fill="#222222"/>
<path d="M20.4081 4.31218C20.5409 5.01385 20.7635 5.74111 21.056 6.40398C21.5666 6.15625 21.5472 5.44671 21.5251 4.99518C21.4879 4.22448 21.069 3.34561 20.4855 2.78708C20.1282 3.18108 20.3235 3.86521 20.4081 4.31218Z" fill="#222222"/>
<path d="M20.8399 7.15417C21.3456 7.56457 21.6521 8.32513 21.723 9.0043C21.2448 9.0608 20.8626 8.61293 20.5781 8.30567C20.1906 7.8873 19.8239 7.36257 19.5913 6.8136C20.0471 6.55767 20.5107 6.88683 20.8399 7.15417Z" fill="#222222"/>
<path d="M21.7163 6.80771C21.6259 7.51621 21.6259 8.28284 21.7159 9.00524C22.2722 8.93494 22.4569 8.24774 22.5657 7.81664C22.7539 7.07251 22.6276 6.11131 22.2612 5.38791C21.8031 5.64881 21.7736 6.35481 21.7163 6.80771Z" fill="#222222"/>
<path d="M21.2367 9.58532C21.6368 10.1884 21.7774 11.1334 21.5976 11.893C21.0689 11.7642 20.8068 11.1483 20.5962 10.7133C20.3167 10.1352 20.0802 9.46078 19.9956 8.79908C20.569 8.67628 20.9733 9.18805 21.2367 9.58532Z" fill="#222222"/>
<path d="M22.287 9.52437C21.9754 10.2669 21.7321 11.0842 21.5898 11.8912C22.196 12.0252 22.6324 11.3701 22.886 10.9357C23.3373 10.1624 23.4689 9.09044 23.3036 8.16537C22.7487 8.27987 22.4769 9.07204 22.287 9.52437Z" fill="#222222"/>
<path d="M20.9569 12.209C21.1717 12.9406 21.0227 13.9351 20.5876 14.6228C20.1097 14.3026 20.0433 13.5979 19.9756 13.0926C19.8865 12.4258 19.8444 11.6871 19.9552 10.9957C20.5665 11.076 20.8134 11.7203 20.9569 12.209Z" fill="#222222"/>
<path d="M22.0191 12.5222C21.483 13.1555 20.9883 13.8774 20.5801 14.6181C21.1334 14.9735 21.783 14.4879 22.1769 14.1442C22.8754 13.5346 23.3293 12.4984 23.4368 11.5216C22.8553 11.4412 22.3428 12.1402 22.0191 12.5222Z" fill="#222222"/>
<path d="M19.8296 14.6989C19.7836 15.5504 19.2448 16.4439 18.5276 16.9525C18.1809 16.4644 18.3983 15.7167 18.5162 15.1947C18.6753 14.4919 18.8956 13.7601 19.2228 13.1108C19.7936 13.4211 19.86 14.1381 19.8296 14.6989Z" fill="#222222"/>
<path d="M20.7946 15.4182C20.0174 15.8625 19.2425 16.3869 18.522 16.9449C18.9535 17.5295 19.8159 17.2964 20.3504 17.1085C21.2929 16.7773 22.1329 15.9043 22.5716 14.9344C22.0153 14.6396 21.2537 15.1557 20.7946 15.4182Z" fill="#222222"/>
<path d="M17.616 16.7791C17.1494 17.6551 16.0865 18.2265 15.0853 18.3641C14.9776 17.7273 15.6472 17.0968 16.0123 16.6843C16.5316 16.0971 17.073 15.4877 17.6801 14.9799C18.135 15.5232 17.8942 16.2562 17.616 16.7791Z" fill="#222222"/>
<path d="M18.282 17.8893C17.2216 18.0027 16.1435 18.166 15.0835 18.3543C15.1847 19.1578 16.424 19.2874 16.9864 19.3349C18.1401 19.4321 19.4233 18.9551 20.3165 18.1519C19.873 17.6147 18.847 17.8289 18.282 17.8893Z" fill="#222222"/>
<path d="M16.2398 1.54134C16.9516 1.7503 17.7851 2.14674 18.1966 2.87854C17.4495 2.79474 16.7151 2.52117 15.9968 2.31274C15.1924 2.07924 14.3453 1.9046 13.5664 1.5823C14.4194 1.23117 15.4249 1.30214 16.2398 1.54134Z" fill="#222222"/>
<path d="M12.5055 1.16264L12.1402 0.333344L11.7818 1.14721L10.9482 0.615477L11.4839 1.77358H12.8159L13.3322 0.615477L12.5055 1.16264Z" fill="#222222"/>
<path d="M12.8073 1.95352H11.4731V2.15609H12.8073V1.95352Z" fill="#222222"/>
<path d="M12.2353 17.6239L12.4503 18.3047H13.146L12.5832 18.7254L12.7981 19.4061L12.2353 18.9854L11.6725 19.4061L11.8875 18.7254L11.3247 18.3047H12.0204L12.2353 17.6239Z" fill="#222222"/>
</g>
<path d="M32.1609 8.36364V2.54546H34.4879C34.9155 2.54546 35.2721 2.60891 35.5578 2.7358C35.8434 2.8627 36.0581 3.03883 36.2019 3.26421C36.3457 3.4877 36.4176 3.74527 36.4176 4.03694C36.4176 4.26421 36.3722 4.46402 36.2814 4.63637C36.1906 4.80682 36.0657 4.94698 35.9068 5.05682C35.7498 5.16478 35.57 5.24148 35.3676 5.28694V5.34376C35.589 5.35323 35.7961 5.41573 35.9891 5.53126C36.184 5.64679 36.3419 5.80872 36.463 6.01705C36.5841 6.22349 36.6446 6.4697 36.6446 6.75569C36.6446 7.0644 36.568 7.33997 36.4148 7.58239C36.2634 7.82292 36.0392 8.01326 35.7422 8.15341C35.4452 8.29357 35.0791 8.36364 34.644 8.36364H32.1609ZM33.3897 7.35796H34.3914C34.7338 7.35796 34.9836 7.29262 35.1406 7.16194C35.2976 7.02936 35.3761 6.85323 35.3761 6.63353C35.3761 6.47254 35.3374 6.3305 35.2598 6.20739C35.1822 6.08429 35.0715 5.9877 34.9278 5.91762C34.7859 5.84754 34.6166 5.81251 34.4198 5.81251H33.3897V7.35796ZM33.3897 4.98012H34.3006C34.469 4.98012 34.6184 4.95076 34.749 4.89205C34.8814 4.83145 34.9855 4.74622 35.0611 4.63637C35.1387 4.52652 35.1775 4.39489 35.1775 4.24148C35.1775 4.03126 35.1028 3.86175 34.9533 3.73296C34.8057 3.60417 34.5957 3.53978 34.3233 3.53978H33.3897V4.98012Z" fill="#222222"/>
<path d="M39.4079 8.44887C38.9595 8.44887 38.5736 8.35796 38.2501 8.17614C37.9285 7.99243 37.6807 7.73296 37.5066 7.39773C37.3325 7.06061 37.2455 6.66194 37.2455 6.20171C37.2455 5.75285 37.3325 5.35891 37.5066 5.01989C37.6807 4.68088 37.9256 4.41667 38.2416 4.22728C38.5594 4.03788 38.9321 3.94319 39.3597 3.94319C39.6472 3.94319 39.9149 3.98959 40.1628 4.08239C40.4125 4.1733 40.6301 4.31061 40.8155 4.49432C41.0027 4.67804 41.1484 4.9091 41.2525 5.18751C41.3565 5.46402 41.4086 5.78788 41.4086 6.1591V6.49148H37.7279V5.74148H40.2706C40.2706 5.56724 40.2328 5.41288 40.1571 5.27841C40.0814 5.14395 39.9764 5.03883 39.8421 4.96307C39.7097 4.88542 39.5555 4.8466 39.3795 4.8466C39.196 4.8466 39.0333 4.88921 38.8914 4.97444C38.7514 5.05777 38.6417 5.17046 38.5623 5.31251C38.4828 5.45266 38.4421 5.60891 38.4402 5.78126V6.49432C38.4402 6.71023 38.48 6.89679 38.5594 7.05398C38.6408 7.21118 38.7552 7.33239 38.9028 7.41762C39.0504 7.50285 39.2254 7.54546 39.4278 7.54546C39.5621 7.54546 39.6851 7.52652 39.7967 7.48864C39.9083 7.45076 40.0038 7.39395 40.0833 7.31819C40.1628 7.24243 40.2233 7.14963 40.2649 7.03978L41.383 7.11364C41.3263 7.38258 41.2099 7.61743 41.034 7.81819C40.8599 8.01705 40.6348 8.17235 40.3586 8.2841C40.0843 8.39395 39.7674 8.44887 39.4079 8.44887Z" fill="#222222"/>
<path d="M45.8241 5.24432L44.7174 5.31251C44.6985 5.21781 44.6578 5.13258 44.5954 5.05682C44.533 4.97917 44.4507 4.91762 44.3485 4.87216C44.2482 4.82482 44.1281 4.80114 43.9881 4.80114C43.8008 4.80114 43.6428 4.84091 43.5142 4.92046C43.3855 4.99811 43.3212 5.10228 43.3212 5.23296C43.3212 5.33713 43.3628 5.4252 43.4461 5.49716C43.5293 5.56913 43.6722 5.6269 43.8746 5.67046L44.6635 5.82955C45.0873 5.91667 45.4032 6.05682 45.6113 6.25001C45.8194 6.44319 45.9235 6.69698 45.9235 7.01137C45.9235 7.29735 45.8393 7.5483 45.6709 7.76421C45.5044 7.98012 45.2755 8.14868 44.9842 8.26989C44.6947 8.38921 44.3608 8.44887 43.9824 8.44887C43.4054 8.44887 42.9457 8.3286 42.6033 8.08807C42.2627 7.84565 42.0631 7.5161 42.0045 7.09944L43.1935 7.03694C43.2295 7.21307 43.3165 7.34754 43.4546 7.44035C43.5927 7.53126 43.7696 7.57671 43.9853 7.57671C44.1971 7.57671 44.3674 7.53599 44.4961 7.45455C44.6266 7.37122 44.6928 7.26421 44.6947 7.13353C44.6928 7.02368 44.6465 6.93372 44.5557 6.86364C44.4648 6.79167 44.3248 6.73675 44.1357 6.69887L43.3808 6.5483C42.9551 6.46307 42.6383 6.31535 42.4302 6.10512C42.2239 5.89489 42.1208 5.6269 42.1208 5.30114C42.1208 5.02084 42.1965 4.77936 42.3479 4.57671C42.5011 4.37406 42.7158 4.21781 42.992 4.10796C43.2701 3.99811 43.5955 3.94319 43.9682 3.94319C44.5188 3.94319 44.952 4.05966 45.2679 4.29262C45.5858 4.52557 45.7712 4.84281 45.8241 5.24432Z" fill="#222222"/>
<path d="M49.0032 4.00001V4.9091H46.3782V4.00001H49.0032ZM46.9742 2.95455H48.183V7.02273C48.183 7.13448 48.2001 7.2216 48.2341 7.2841C48.2682 7.3447 48.3155 7.38732 48.376 7.41194C48.4384 7.43656 48.5103 7.44887 48.5917 7.44887C48.6484 7.44887 48.7052 7.44413 48.762 7.43466C48.8187 7.4233 48.8622 7.41478 48.8925 7.4091L49.0826 8.30966C49.0221 8.3286 48.937 8.35038 48.8272 8.37501C48.7175 8.40152 48.5841 8.41762 48.4271 8.4233C48.1358 8.43466 47.8804 8.39584 47.6609 8.30682C47.4433 8.21781 47.274 8.07955 47.1529 7.89205C47.0319 7.70455 46.9723 7.46781 46.9742 7.18182V2.95455Z" fill="#222222"/>
<path d="M56.7908 4.58239H55.5478C55.5251 4.42141 55.4788 4.27841 55.4088 4.15341C55.3388 4.02652 55.2489 3.91857 55.1392 3.82955C55.0294 3.74054 54.9027 3.67235 54.7589 3.62501C54.617 3.57766 54.4628 3.55398 54.2963 3.55398C53.9955 3.55398 53.7335 3.62879 53.5103 3.77841C53.287 3.92614 53.1139 4.14205 52.991 4.42614C52.868 4.70834 52.8065 5.05114 52.8065 5.45455C52.8065 5.86932 52.868 6.21781 52.991 6.50001C53.1158 6.7822 53.2899 6.99527 53.5131 7.13921C53.7364 7.28315 53.9946 7.35512 54.2878 7.35512C54.4524 7.35512 54.6047 7.33334 54.7447 7.28978C54.8866 7.24622 55.0124 7.18277 55.1221 7.09944C55.2319 7.01421 55.3227 6.91099 55.3946 6.78978C55.4683 6.66857 55.5194 6.53031 55.5478 6.37501L56.7908 6.38069C56.7586 6.64773 56.6782 6.90531 56.5495 7.15341C56.4228 7.39963 56.2516 7.62027 56.0359 7.81535C55.8221 8.00853 55.5667 8.16194 55.2697 8.27557C54.9746 8.38732 54.6407 8.44319 54.268 8.44319C53.7496 8.44319 53.2861 8.32576 52.8775 8.09091C52.4707 7.85607 52.1491 7.5161 51.9126 7.07103C51.678 6.62595 51.5607 6.08713 51.5607 5.45455C51.5607 4.82008 51.6799 4.28031 51.9183 3.83523C52.1567 3.39016 52.4802 3.05114 52.8888 2.81819C53.2974 2.58334 53.7572 2.46591 54.268 2.46591C54.6047 2.46591 54.9169 2.51326 55.2044 2.60796C55.4939 2.70266 55.7502 2.84091 55.9735 3.02273C56.1967 3.20266 56.3783 3.4233 56.5183 3.68466C56.6602 3.94603 56.751 4.24527 56.7908 4.58239Z" fill="#222222"/>
<path d="M59.6186 8.44887C59.1778 8.44887 58.7966 8.35512 58.475 8.16762C58.1553 7.97823 57.9084 7.71497 57.7343 7.37785C57.5603 7.03883 57.4732 6.64584 57.4732 6.19887C57.4732 5.74811 57.5603 5.35417 57.7343 5.01705C57.9084 4.67804 58.1553 4.41478 58.475 4.22728C58.7966 4.03788 59.1778 3.94319 59.6186 3.94319C60.0594 3.94319 60.4397 4.03788 60.7594 4.22728C61.081 4.41478 61.3288 4.67804 61.5029 5.01705C61.6769 5.35417 61.764 5.74811 61.764 6.19887C61.764 6.64584 61.6769 7.03883 61.5029 7.37785C61.3288 7.71497 61.081 7.97823 60.7594 8.16762C60.4397 8.35512 60.0594 8.44887 59.6186 8.44887ZM59.6243 7.51137C59.8248 7.51137 59.9922 7.45455 60.1266 7.34091C60.2609 7.22538 60.3621 7.06819 60.4302 6.86932C60.5002 6.67046 60.5352 6.44413 60.5352 6.19035C60.5352 5.93656 60.5002 5.71023 60.4302 5.51137C60.3621 5.31251 60.2609 5.15531 60.1266 5.03978C59.9922 4.92425 59.8248 4.86648 59.6243 4.86648C59.4219 4.86648 59.2516 4.92425 59.1135 5.03978C58.9773 5.15531 58.8742 5.31251 58.8042 5.51137C58.7361 5.71023 58.702 5.93656 58.702 6.19035C58.702 6.44413 58.7361 6.67046 58.8042 6.86932C58.8742 7.06819 58.9773 7.22538 59.1135 7.34091C59.2516 7.45455 59.4219 7.51137 59.6243 7.51137Z" fill="#222222"/>
<path d="M65.2658 5.49432V6.45455H62.6153V5.49432H65.2658Z" fill="#222222"/>
<path d="M67.4629 8.36364L65.8 2.54546H67.1423L68.1043 6.58807H68.1525L69.2139 2.54546H70.3632L71.4217 6.5966H71.4727L72.4347 2.54546H73.777L72.1141 8.36364H70.9165L69.8098 4.55966H69.7644L68.6605 8.36364H67.4629Z" fill="#222222"/>
<path d="M75.9132 8.44887C75.4724 8.44887 75.0911 8.35512 74.7695 8.16762C74.4498 7.97823 74.2029 7.71497 74.0289 7.37785C73.8548 7.03883 73.7678 6.64584 73.7678 6.19887C73.7678 5.74811 73.8548 5.35417 74.0289 5.01705C74.2029 4.67804 74.4498 4.41478 74.7695 4.22728C75.0911 4.03788 75.4724 3.94319 75.9132 3.94319C76.354 3.94319 76.7342 4.03788 77.0539 4.22728C77.3756 4.41478 77.6234 4.67804 77.7974 5.01705C77.9715 5.35417 78.0585 5.74811 78.0585 6.19887C78.0585 6.64584 77.9715 7.03883 77.7974 7.37785C77.6234 7.71497 77.3756 7.97823 77.0539 8.16762C76.7342 8.35512 76.354 8.44887 75.9132 8.44887ZM75.9188 7.51137C76.1194 7.51137 76.2868 7.45455 76.4211 7.34091C76.5554 7.22538 76.6567 7.06819 76.7248 6.86932C76.7948 6.67046 76.8298 6.44413 76.8298 6.19035C76.8298 5.93656 76.7948 5.71023 76.7248 5.51137C76.6567 5.31251 76.5554 5.15531 76.4211 5.03978C76.2868 4.92425 76.1194 4.86648 75.9188 4.86648C75.7164 4.86648 75.5461 4.92425 75.408 5.03978C75.2718 5.15531 75.1687 5.31251 75.0987 5.51137C75.0306 5.71023 74.9966 5.93656 74.9966 6.19035C74.9966 6.44413 75.0306 6.67046 75.0987 6.86932C75.1687 7.06819 75.2718 7.22538 75.408 7.34091C75.5461 7.45455 75.7164 7.51137 75.9188 7.51137Z" fill="#222222"/>
<path d="M78.8446 8.36364V4.00001H80.0166V4.76137H80.062C80.1414 4.49054 80.2748 4.28599 80.4621 4.14773C80.6494 4.00758 80.8651 3.93751 81.1091 3.93751C81.1697 3.93751 81.2349 3.94129 81.3049 3.94887C81.3749 3.95645 81.4364 3.96686 81.4894 3.98012V5.05398C81.4326 5.03694 81.3541 5.02179 81.2539 5.00853C81.1536 4.99527 81.0618 4.98864 80.9786 4.98864C80.8008 4.98864 80.6418 5.02747 80.5019 5.10512C80.3637 5.18088 80.254 5.28694 80.1727 5.4233C80.0932 5.55966 80.0535 5.71686 80.0535 5.89489V8.36364H78.8446Z" fill="#222222"/>
<path d="M83.2098 7.10796L83.2126 5.65626H83.3886L84.7848 4.00001H86.1724L84.2967 6.19319H84.0101L83.2098 7.10796ZM82.1144 8.36364V2.54546H83.3233V8.36364H82.1144ZM84.8387 8.36364L83.556 6.46307L84.3619 5.60796L86.2547 8.36364H84.8387Z" fill="#222222"/>
<path d="M86.7655 8.36364V4.00001H87.9744V8.36364H86.7655ZM87.3728 3.43751C87.1931 3.43751 87.0389 3.37785 86.9103 3.25853C86.7835 3.13732 86.7201 2.99243 86.7201 2.82387C86.7201 2.6572 86.7835 2.51421 86.9103 2.39489C87.0389 2.27368 87.1931 2.21307 87.3728 2.21307C87.5526 2.21307 87.7058 2.27368 87.8326 2.39489C87.9612 2.51421 88.0255 2.6572 88.0255 2.82387C88.0255 2.99243 87.9612 3.13732 87.8326 3.25853C87.7058 3.37785 87.5526 3.43751 87.3728 3.43751Z" fill="#222222"/>
<path d="M90.1517 5.84091V8.36364H88.9428V4.00001H90.095V4.76989H90.1461C90.2425 4.5161 90.4043 4.31535 90.6313 4.16762C90.8583 4.018 91.1336 3.94319 91.4571 3.94319C91.7598 3.94319 92.0237 4.00948 92.2488 4.14205C92.474 4.27463 92.649 4.46402 92.7738 4.71023C92.8987 4.95455 92.9611 5.24622 92.9611 5.58523V8.36364H91.7522V5.80114C91.7541 5.5341 91.686 5.32576 91.5479 5.17614C91.4098 5.02463 91.2197 4.94887 90.9775 4.94887C90.8148 4.94887 90.671 4.98391 90.5462 5.05398C90.4232 5.12406 90.3267 5.22633 90.2567 5.3608C90.1886 5.49338 90.1536 5.65341 90.1517 5.84091Z" fill="#222222"/>
<path d="M95.8777 10.0909C95.486 10.0909 95.1502 10.0369 94.8703 9.92898C94.5921 9.82292 94.3708 9.67804 94.2062 9.49432C94.0416 9.31061 93.9347 9.10417 93.8855 8.87501L95.0036 8.72444C95.0377 8.81156 95.0916 8.893 95.1654 8.96876C95.2392 9.04451 95.3366 9.10512 95.4577 9.15057C95.5806 9.19792 95.7301 9.2216 95.906 9.2216C96.169 9.2216 96.3856 9.1572 96.5559 9.02841C96.7281 8.90152 96.8141 8.68845 96.8141 8.38921V7.59091H96.7631C96.7101 7.71213 96.6306 7.82671 96.5247 7.93466C96.4187 8.04262 96.2825 8.13069 96.116 8.19887C95.9496 8.26705 95.7509 8.30114 95.5201 8.30114C95.1928 8.30114 94.8948 8.22538 94.6262 8.07387C94.3595 7.92046 94.1466 7.68656 93.9877 7.37216C93.8307 7.05588 93.7522 6.65626 93.7522 6.1733C93.7522 5.67898 93.8326 5.2661 93.9934 4.93466C94.1542 4.60323 94.368 4.35512 94.6347 4.19035C94.9034 4.02557 95.1975 3.94319 95.5173 3.94319C95.7613 3.94319 95.9656 3.98485 96.1302 4.06819C96.2948 4.14963 96.4272 4.2519 96.5275 4.37501C96.6297 4.49622 96.7082 4.61554 96.7631 4.73296H96.8085V4.00001H98.0088V8.40626C98.0088 8.77747 97.918 9.08807 97.7364 9.33807C97.5548 9.58807 97.3032 9.77557 96.9816 9.90057C96.6618 10.0275 96.2939 10.0909 95.8777 10.0909ZM95.9032 7.39205C96.0981 7.39205 96.2627 7.34376 96.397 7.24716C96.5332 7.14868 96.6372 7.00853 96.7091 6.82671C96.7829 6.643 96.8198 6.4233 96.8198 6.16762C96.8198 5.91194 96.7839 5.69035 96.712 5.50285C96.6401 5.31345 96.536 5.16667 96.3998 5.06251C96.2636 4.95834 96.0981 4.90626 95.9032 4.90626C95.7046 4.90626 95.5371 4.96023 95.4009 5.06819C95.2647 5.17425 95.1616 5.32198 95.0916 5.51137C95.0216 5.70076 94.9866 5.91951 94.9866 6.16762C94.9866 6.41951 95.0216 6.63732 95.0916 6.82103C95.1635 7.00285 95.2666 7.14394 95.4009 7.24432C95.5371 7.34281 95.7046 7.39205 95.9032 7.39205Z" fill="#222222"/>
<path d="M35.3137 14.2188C35.291 13.9896 35.1936 13.8116 35.0214 13.6847C34.8493 13.5578 34.6156 13.4943 34.3205 13.4943C34.1199 13.4943 33.9506 13.5227 33.8125 13.5796C33.6744 13.6345 33.5685 13.7112 33.4947 13.8097C33.4228 13.9081 33.3868 14.0199 33.3868 14.1449C33.3831 14.2491 33.4048 14.34 33.4521 14.4176C33.5013 14.4953 33.5685 14.5625 33.6536 14.6193C33.7387 14.6742 33.8371 14.7225 33.9487 14.7642C34.0603 14.804 34.1795 14.8381 34.3063 14.8665L34.8284 14.9915C35.082 15.0483 35.3146 15.1241 35.5265 15.2188C35.7384 15.3135 35.9219 15.4299 36.0771 15.5682C36.2322 15.7064 36.3523 15.8693 36.4375 16.0568C36.5245 16.2443 36.5689 16.4593 36.5708 16.7017C36.5689 17.0578 36.4781 17.3665 36.2984 17.6278C36.1206 17.8873 35.8633 18.089 35.5265 18.233C35.1917 18.375 34.7878 18.446 34.3148 18.446C33.8456 18.446 33.437 18.3741 33.0889 18.2301C32.7427 18.0862 32.4721 17.8731 32.2773 17.5909C32.0843 17.3068 31.9831 16.9555 31.9736 16.5369H33.1627C33.1759 16.732 33.2317 16.8949 33.3301 17.0256C33.4304 17.1544 33.5637 17.2519 33.7302 17.3182C33.8986 17.3826 34.0887 17.4148 34.3006 17.4148C34.5087 17.4148 34.6894 17.3845 34.8426 17.3239C34.9978 17.2633 35.1179 17.179 35.203 17.071C35.2882 16.9631 35.3307 16.839 35.3307 16.6989C35.3307 16.5682 35.2919 16.4583 35.2144 16.3693C35.1387 16.2803 35.0271 16.2046 34.8795 16.1421C34.7338 16.0796 34.5551 16.0227 34.3432 15.9716L33.7104 15.8125C33.2204 15.6932 32.8335 15.5066 32.5497 15.2528C32.2659 14.9991 32.125 14.6572 32.1269 14.2273C32.125 13.875 32.2186 13.5672 32.4078 13.304C32.5989 13.0407 32.8609 12.8352 33.1939 12.6875C33.5268 12.5398 33.9052 12.4659 34.329 12.4659C34.7603 12.4659 35.1368 12.5398 35.4584 12.6875C35.7819 12.8352 36.0336 13.0407 36.2133 13.304C36.393 13.5672 36.4857 13.8722 36.4914 14.2188H35.3137Z" fill="#222222"/>
<path d="M37.3746 20V14H38.5665V14.733H38.6204C38.6734 14.6155 38.75 14.4962 38.8503 14.375C38.9525 14.2519 39.0849 14.1496 39.2476 14.0682C39.4122 13.9849 39.6165 13.9432 39.8605 13.9432C40.1784 13.9432 40.4716 14.0265 40.7403 14.1932C41.0089 14.358 41.2236 14.607 41.3844 14.9403C41.5452 15.2718 41.6256 15.6875 41.6256 16.1875C41.6256 16.6742 41.5471 17.0852 41.3901 17.4205C41.235 17.7538 41.0231 18.0066 40.7544 18.179C40.4877 18.3494 40.1888 18.4347 39.8577 18.4347C39.6231 18.4347 39.4235 18.3958 39.2589 18.3182C39.0962 18.2405 38.9629 18.143 38.8588 18.0256C38.7548 17.9063 38.6753 17.786 38.6204 17.6648H38.5835V20H37.3746ZM38.558 16.1818C38.558 16.4413 38.5939 16.6676 38.6658 16.8608C38.7377 17.054 38.8418 17.2046 38.978 17.3125C39.1142 17.4186 39.2797 17.4716 39.4746 17.4716C39.6714 17.4716 39.8378 17.4176 39.9741 17.3097C40.1103 17.1998 40.2134 17.0483 40.2834 16.8551C40.3553 16.66 40.3912 16.4356 40.3912 16.1818C40.3912 15.9299 40.3562 15.7083 40.2862 15.5171C40.2162 15.3258 40.1131 15.1761 39.9769 15.0682C39.8407 14.9602 39.6732 14.9063 39.4746 14.9063C39.2778 14.9063 39.1114 14.9583 38.9752 15.0625C38.8408 15.1667 38.7377 15.3144 38.6658 15.5057C38.5939 15.697 38.558 15.9224 38.558 16.1818Z" fill="#222222"/>
<path d="M43.6745 18.446C43.3964 18.446 43.1486 18.3977 42.931 18.3011C42.7135 18.2027 42.5413 18.0578 42.4145 17.8665C42.2897 17.6733 42.2273 17.4328 42.2273 17.1449C42.2273 16.9025 42.2717 16.6989 42.3606 16.5341C42.4495 16.3693 42.5706 16.2367 42.7239 16.1364C42.8771 16.036 43.0512 15.9602 43.246 15.9091C43.4428 15.858 43.649 15.822 43.8647 15.8011C44.1182 15.7746 44.3225 15.75 44.4776 15.7273C44.6327 15.7027 44.7453 15.6667 44.8153 15.6193C44.8853 15.572 44.9203 15.5019 44.9203 15.4091V15.3921C44.9203 15.2121 44.8636 15.0729 44.75 14.9744C44.6384 14.876 44.4795 14.8267 44.2733 14.8267C44.0557 14.8267 43.8826 14.875 43.754 14.9716C43.6253 15.0663 43.5402 15.1856 43.4986 15.3296L42.3805 15.2386C42.4372 14.9735 42.5489 14.7443 42.7154 14.5511C42.8818 14.3561 43.0966 14.2064 43.3595 14.1023C43.6244 13.9962 43.9309 13.9432 44.279 13.9432C44.5211 13.9432 44.7529 13.9716 44.9742 14.0284C45.1975 14.0852 45.3952 14.1733 45.5673 14.2926C45.7414 14.4119 45.8785 14.5653 45.9788 14.7528C46.0791 14.9385 46.1292 15.161 46.1292 15.4205V18.3636H44.9827V17.7585H44.9487C44.8787 17.8949 44.785 18.0152 44.6677 18.1193C44.5505 18.2216 44.4095 18.3021 44.2449 18.3608C44.0803 18.4176 43.8902 18.446 43.6745 18.446ZM44.0207 17.6108C44.1986 17.6108 44.3556 17.5758 44.4918 17.5057C44.628 17.4337 44.7349 17.3371 44.8125 17.2159C44.89 17.0947 44.9288 16.9574 44.9288 16.804V16.3409C44.891 16.3655 44.839 16.3883 44.7727 16.4091C44.7084 16.428 44.6356 16.446 44.5542 16.4631C44.4729 16.4782 44.3915 16.4924 44.3102 16.5057C44.2288 16.5171 44.1551 16.5275 44.0888 16.5369C43.9469 16.5578 43.823 16.5909 43.7171 16.6364C43.6111 16.6818 43.5288 16.7434 43.4702 16.821C43.4116 16.8968 43.3822 16.9915 43.3822 17.1051C43.3822 17.2699 43.4418 17.3958 43.561 17.483C43.6821 17.5682 43.8353 17.6108 44.0207 17.6108Z" fill="#222222"/>
<path d="M49.0365 18.4489C48.59 18.4489 48.206 18.3542 47.8844 18.1648C47.5646 17.9735 47.3187 17.7083 47.1465 17.3693C46.9763 17.0303 46.8911 16.6402 46.8911 16.1989C46.8911 15.7519 46.9772 15.3599 47.1494 15.0227C47.3234 14.6837 47.5703 14.4195 47.89 14.2301C48.2098 14.0388 48.59 13.9432 49.0308 13.9432C49.4111 13.9432 49.7441 14.0123 50.0297 14.1506C50.3154 14.2888 50.5415 14.483 50.708 14.733C50.8745 14.983 50.9662 15.2765 50.9832 15.6136H49.8424C49.8103 15.3958 49.7251 15.2206 49.587 15.0881C49.4508 14.9536 49.272 14.8864 49.0507 14.8864C48.8634 14.8864 48.6998 14.9375 48.5598 15.0398C48.4217 15.1402 48.3138 15.2869 48.2363 15.4801C48.1587 15.6733 48.1199 15.9072 48.1199 16.1818C48.1199 16.4602 48.1577 16.697 48.2334 16.8921C48.311 17.0871 48.4198 17.2358 48.5598 17.3381C48.6998 17.4403 48.8634 17.4915 49.0507 17.4915C49.1888 17.4915 49.3127 17.4631 49.4225 17.4063C49.5341 17.3494 49.6258 17.2671 49.6977 17.1591C49.7715 17.0492 49.8197 16.9176 49.8424 16.7642H50.9832C50.9643 17.0975 50.8735 17.3911 50.7108 17.6449C50.55 17.8968 50.3277 18.0938 50.0439 18.2358C49.7601 18.3778 49.4243 18.4489 49.0365 18.4489Z" fill="#222222"/>
<path d="M53.7437 18.4489C53.2953 18.4489 52.9094 18.358 52.5859 18.1761C52.2643 17.9924 52.0164 17.733 51.8424 17.3977C51.6683 17.0606 51.5813 16.6619 51.5813 16.2017C51.5813 15.7528 51.6683 15.3589 51.8424 15.0199C52.0164 14.6809 52.2614 14.4167 52.5774 14.2273C52.8952 14.0379 53.2679 13.9432 53.6954 13.9432C53.983 13.9432 54.2507 13.9896 54.4985 14.0824C54.7483 14.1733 54.9658 14.3106 55.1512 14.4943C55.3385 14.678 55.4842 14.9091 55.5882 15.1875C55.6923 15.464 55.7443 15.7879 55.7443 16.1591V16.4915H52.0637V15.7415H54.6064C54.6064 15.5672 54.5685 15.4129 54.4929 15.2784C54.4172 15.1439 54.3122 15.0388 54.1779 14.9631C54.0454 14.8854 53.8912 14.8466 53.7153 14.8466C53.5318 14.8466 53.3691 14.8892 53.2272 14.9744C53.0872 15.0578 52.9775 15.1705 52.898 15.3125C52.8186 15.4527 52.7779 15.6089 52.776 15.7813V16.4943C52.776 16.7102 52.8157 16.8968 52.8952 17.054C52.9765 17.2112 53.091 17.3324 53.2386 17.4176C53.3861 17.5028 53.5611 17.5455 53.7635 17.5455C53.8979 17.5455 54.0208 17.5265 54.1325 17.4886C54.2441 17.4508 54.3396 17.3939 54.4191 17.3182C54.4985 17.2424 54.5591 17.1496 54.6007 17.0398L55.7188 17.1136C55.662 17.3826 55.5457 17.6174 55.3697 17.8182C55.1957 18.0171 54.9706 18.1724 54.6943 18.2841C54.42 18.3939 54.1031 18.4489 53.7437 18.4489Z" fill="#222222"/>
<path d="M58.3714 18.3636V17.4773L60.4401 15.5597C60.6161 15.3892 60.7637 15.2358 60.8828 15.0994C61.0039 14.9631 61.0957 14.8296 61.1581 14.6989C61.2205 14.5663 61.2517 14.4233 61.2517 14.2699C61.2517 14.0994 61.213 13.9527 61.1354 13.8296C61.0578 13.7046 60.9519 13.6089 60.8176 13.5426C60.6832 13.4744 60.531 13.4403 60.3607 13.4403C60.1828 13.4403 60.0277 13.4763 59.8953 13.5483C59.7629 13.6203 59.6607 13.7235 59.5888 13.858C59.5169 13.9924 59.481 14.1525 59.481 14.3381H58.3146C58.3146 13.9574 58.4007 13.6269 58.5729 13.3466C58.745 13.0663 58.9863 12.8494 59.2965 12.696C59.6068 12.5426 59.9643 12.4659 60.3692 12.4659C60.7854 12.4659 61.1477 12.5398 61.4561 12.6875C61.7663 12.8333 62.0075 13.036 62.1797 13.2955C62.3519 13.5549 62.4379 13.8523 62.4379 14.1875C62.4379 14.4072 62.3944 14.6241 62.3074 14.8381C62.2223 15.0521 62.07 15.2898 61.8505 15.5511C61.6311 15.8106 61.3217 16.1222 60.9226 16.4858L60.0741 17.3182V17.358H62.5146V18.3636H58.3714Z" fill="#222222"/>
<path d="M65.6837 18.4915C65.1956 18.4896 64.7756 18.3693 64.4237 18.1307C64.0737 17.8921 63.8041 17.5464 63.6149 17.0938C63.4276 16.6411 63.3349 16.0966 63.3368 15.4602C63.3368 14.8258 63.4305 14.285 63.6178 13.8381C63.8069 13.3911 64.0765 13.0511 64.4265 12.8182C64.7784 12.5833 65.1974 12.4659 65.6837 12.4659C66.1699 12.4659 66.588 12.5833 66.938 12.8182C67.2898 13.053 67.5604 13.3939 67.7496 13.8409C67.9387 14.286 68.0324 14.8258 68.0305 15.4602C68.0305 16.0985 67.9359 16.6439 67.7467 17.0966C67.5594 17.5492 67.2908 17.8949 66.9408 18.1335C66.5908 18.3722 66.1718 18.4915 65.6837 18.4915ZM65.6837 17.4716C66.0166 17.4716 66.2824 17.304 66.4811 16.9688C66.6797 16.6335 66.7781 16.1307 66.7762 15.4602C66.7762 15.0189 66.7308 14.6515 66.64 14.358C66.5511 14.0644 66.4243 13.8438 66.2597 13.696C66.097 13.5483 65.905 13.4744 65.6837 13.4744C65.3526 13.4744 65.0877 13.6402 64.8891 13.9716C64.6904 14.303 64.5902 14.7992 64.5883 15.4602C64.5883 15.9072 64.6327 16.2803 64.7216 16.5796C64.8125 16.8769 64.9402 17.1004 65.1047 17.25C65.2693 17.3977 65.4623 17.4716 65.6837 17.4716Z" fill="#222222"/>
<path d="M68.9067 18.3636V17.4773L70.9754 15.5597C71.1514 15.3892 71.2989 15.2358 71.4181 15.0994C71.5392 14.9631 71.6309 14.8296 71.6934 14.6989C71.7558 14.5663 71.787 14.4233 71.787 14.2699C71.787 14.0994 71.7482 13.9527 71.6707 13.8296C71.5931 13.7046 71.4872 13.6089 71.3528 13.5426C71.2185 13.4744 71.0662 13.4403 70.896 13.4403C70.7181 13.4403 70.563 13.4763 70.4306 13.5483C70.2981 13.6203 70.196 13.7235 70.1241 13.858C70.0522 13.9924 70.0162 14.1525 70.0162 14.3381H68.8499C68.8499 13.9574 68.936 13.6269 69.1082 13.3466C69.2803 13.0663 69.5215 12.8494 69.8318 12.696C70.142 12.5426 70.4996 12.4659 70.9045 12.4659C71.3207 12.4659 71.683 12.5398 71.9913 12.6875C72.3016 12.8333 72.5428 13.036 72.715 13.2955C72.8871 13.5549 72.9732 13.8523 72.9732 14.1875C72.9732 14.4072 72.9297 14.6241 72.8427 14.8381C72.7575 15.0521 72.6052 15.2898 72.3858 15.5511C72.1663 15.8106 71.857 16.1222 71.4578 16.4858L70.6093 17.3182V17.358H73.0498V18.3636H68.9067Z" fill="#222222"/>
<path d="M76.0884 18.4432C75.6646 18.4432 75.2872 18.3703 74.9561 18.2244C74.6269 18.0767 74.3668 17.8741 74.1757 17.6165C73.9865 17.357 73.8891 17.0578 73.8834 16.7188H75.1207C75.1283 16.8608 75.1746 16.9858 75.2598 17.0938C75.3468 17.1998 75.4622 17.2822 75.606 17.3409C75.7497 17.3996 75.9115 17.429 76.0912 17.429C76.2785 17.429 76.4441 17.3958 76.5878 17.3296C76.7316 17.2633 76.8442 17.1714 76.9255 17.054C77.0069 16.9366 77.0476 16.8011 77.0476 16.6477C77.0476 16.4924 77.004 16.3551 76.917 16.2358C76.8319 16.1146 76.7089 16.0199 76.5481 15.9517C76.3892 15.8835 76.2 15.8494 75.9805 15.8494H75.4385V14.946H75.9805C76.166 14.946 76.3296 14.9138 76.4715 14.8494C76.6153 14.785 76.7269 14.696 76.8063 14.5824C76.8858 14.4669 76.9255 14.3324 76.9255 14.179C76.9255 14.0332 76.8905 13.9053 76.8205 13.7955C76.7524 13.6837 76.6559 13.5966 76.5311 13.5341C76.4081 13.4716 76.2643 13.4403 76.0997 13.4403C75.9333 13.4403 75.781 13.4706 75.6429 13.5313C75.5047 13.59 75.3941 13.6742 75.3108 13.7841C75.2276 13.8939 75.1831 14.0227 75.1775 14.1705H73.9998C74.0055 13.8352 74.101 13.5398 74.2864 13.2841C74.4718 13.0284 74.7215 12.8286 75.0356 12.6847C75.3515 12.5388 75.7081 12.4659 76.1054 12.4659C76.5065 12.4659 76.8574 12.5388 77.1582 12.6847C77.459 12.8305 77.6927 13.0275 77.8592 13.2756C78.0275 13.5218 78.1108 13.7983 78.1089 14.1051C78.1108 14.4309 78.0096 14.7027 77.8052 14.9205C77.6028 15.1383 77.3389 15.2765 77.0135 15.3352V15.3807C77.4411 15.4356 77.7665 15.5843 77.9897 15.8267C78.2148 16.0672 78.3265 16.3684 78.3246 16.7301C78.3265 17.0616 78.2309 17.3561 78.0379 17.6136C77.8469 17.8712 77.583 18.0739 77.2462 18.2216C76.9095 18.3693 76.5235 18.4432 76.0884 18.4432Z" fill="#222222"/>
<defs>
<clipPath id="clip0_19_1987">
<rect width="23.9736" height="20" fill="white"/>
</clipPath>
</defs>
</svg>
