<svg width="98" height="16" viewBox="0 0 98 16" fill="none" xmlns="http://www.w3.org/2000/svg">
<path fill-rule="evenodd" clip-rule="evenodd" d="M28.3982 0C32.7811 0 36.3342 3.58172 36.3342 8C36.3342 12.4183 32.7811 16 28.3982 16C24.0153 16 20.4622 12.4183 20.4622 8C20.4622 3.58172 24.0153 0 28.3982 0ZM28.1114 0.598636C27.206 0.727076 26.3439 1.46043 25.6747 2.68696C25.4806 3.04273 25.3055 3.43578 25.1528 3.86018C26.0628 3.62967 27.0623 3.49377 28.1114 3.47275V0.598636ZM24.4821 4.05232C24.6719 3.45183 24.9041 2.89936 25.1721 2.40826C25.5038 1.80024 25.8975 1.27518 26.3411 0.871908C23.929 1.57809 22.0277 3.49472 21.3271 5.92628C21.7272 5.47912 22.248 5.08224 22.8512 4.74784C23.3384 4.47772 23.8864 4.24364 24.4821 4.05232ZM24.2915 4.72844C24.0628 5.64572 23.928 6.65336 23.9072 7.71084H21.056C21.1835 6.79816 21.9109 5.92912 23.1277 5.25456C23.4806 5.05888 23.8705 4.88232 24.2915 4.72844ZM24.481 7.71084C24.5047 6.5568 24.6695 5.47336 24.9422 4.51608C25.8918 4.2412 26.9666 4.07504 28.1114 4.05116V5.30032C27.6843 6.40248 26.8132 7.28048 25.7198 7.71084H24.481ZM23.9072 8.28916H21.056C21.1835 9.20184 21.9109 10.0708 23.1277 10.7454C23.4806 10.9411 23.8705 11.1177 24.2915 11.2716C24.0628 10.3543 23.928 9.34664 23.9072 8.28916ZM24.9422 11.4839C24.6695 10.5266 24.5047 9.4432 24.481 8.28916H25.7198C26.8132 8.71952 27.6843 9.59752 28.1114 10.6997V11.9488C26.9666 11.925 25.8918 11.7588 24.9422 11.4839ZM24.4821 11.9477C23.8864 11.7564 23.3384 11.5223 22.8512 11.2522C22.248 10.9178 21.7272 10.5209 21.3271 10.0737C22.0277 12.5053 23.929 14.4219 26.3411 15.1281C25.8975 14.7248 25.5038 14.1998 25.1721 13.5917C24.9041 13.1006 24.6719 12.5482 24.4821 11.9477ZM28.1114 15.4014C27.206 15.2729 26.3439 14.5396 25.6747 13.313C25.4806 12.9573 25.3055 12.5642 25.1528 12.1398C26.0628 12.3703 27.0623 12.5062 28.1114 12.5272V15.4014ZM30.4553 15.1281C30.8989 14.7248 31.2926 14.1998 31.6244 13.5917C31.8923 13.1006 32.1245 12.5482 32.3143 11.9477C32.91 11.7564 33.458 11.5223 33.9452 11.2522C34.5484 10.9178 35.0693 10.5209 35.4693 10.0737C34.7688 12.5053 32.8674 14.4219 30.4553 15.1281ZM31.6436 12.1398C31.4909 12.5642 31.3158 12.9573 31.1217 13.313C30.4525 14.5396 29.5904 15.2729 28.685 15.4014V12.5272C29.7341 12.5062 30.7337 12.3703 31.6436 12.1398ZM32.5049 11.2716C32.9259 11.1177 33.3158 10.9411 33.6687 10.7454C34.8855 10.0708 35.6129 9.20184 35.7404 8.28916H32.8892C32.8684 9.34664 32.7336 10.3543 32.5049 11.2716ZM32.3155 8.28916C32.2918 9.4432 32.1269 10.5266 31.8543 11.4839C30.9046 11.7588 29.8299 11.925 28.685 11.9488V10.7006C29.112 9.59804 29.9832 8.71964 31.0769 8.28916H32.3155ZM32.8892 7.71084H35.7404C35.6129 6.79816 34.8855 5.92912 33.6687 5.25456C33.3158 5.05888 32.9259 4.88232 32.5049 4.72844C32.7336 5.64572 32.8684 6.65336 32.8892 7.71084ZM31.8543 4.51608C32.1269 5.47336 32.2918 6.5568 32.3155 7.71084H31.0769C29.9832 7.28036 29.112 6.40196 28.685 5.2994V4.05116C29.8299 4.07504 30.9046 4.2412 31.8543 4.51608ZM32.3143 4.05232C32.91 4.24364 33.458 4.47772 33.9452 4.74784C34.5484 5.08224 35.0693 5.47912 35.4693 5.92628C34.7688 3.49472 32.8674 1.57809 30.4553 0.871908C30.8989 1.27518 31.2926 1.80024 31.6244 2.40826C31.8923 2.89936 32.1245 3.45183 32.3143 4.05232ZM28.685 0.598636C29.5904 0.727076 30.4525 1.46043 31.1217 2.68696C31.3158 3.04274 31.4909 3.43578 31.6436 3.86018C30.7337 3.62967 29.7341 3.49377 28.685 3.47275V0.598636Z" fill="#222222"/>
<path d="M6.3996 0.844799H8.01854L9.8089 5.5872L11.6183 0.844799H13.2373L10.8945 6.7776L13.2182 12.4032L17.7894 0.767999H19.6559L13.9991 14.4H12.5135L9.82795 7.968L7.12336 14.4H5.63774L0 0.767999H1.8475L6.43769 12.4032L8.7423 6.7776L6.3996 0.844799Z" fill="#222222"/>
<path d="M38.7468 14.4V0.767999H44.5369C45.1337 0.767999 45.6796 0.895999 46.1749 1.152C46.6701 1.3952 47.1018 1.728 47.47 2.1504C47.8382 2.56 48.1239 3.0272 48.3271 3.552C48.5303 4.064 48.6318 4.5888 48.6318 5.1264C48.6318 5.7536 48.5112 6.3488 48.27 6.912C48.0414 7.4752 47.7113 7.9552 47.2795 8.352C46.8605 8.7488 46.3653 9.024 45.7939 9.1776L49.0699 14.4H47.1272L44.0417 9.504H40.4609V14.4H38.7468ZM40.4609 7.968H44.5559C45.0257 7.968 45.432 7.84 45.7749 7.584C46.1304 7.3152 46.4034 6.9632 46.5939 6.528C46.797 6.0928 46.8986 5.6256 46.8986 5.1264C46.8986 4.6144 46.7843 4.1472 46.5558 3.7248C46.3272 3.2896 46.0288 2.944 45.6606 2.688C45.2924 2.432 44.886 2.304 44.4416 2.304H40.4609V7.968Z" fill="#222222"/>
<path d="M51.2646 14.4V0.787199H52.9787V8.3136L59.9497 0.767999H61.7972L56.369 6.7776L62.102 14.4H60.1783L55.2834 7.8144L52.9787 10.2336V14.4H51.2646Z" fill="#222222"/>
<path d="M71.6317 3.6288C71.4794 3.4496 71.2762 3.2768 71.0222 3.1104C70.7683 2.944 70.4826 2.7968 70.1652 2.6688C69.8477 2.528 69.4985 2.4192 69.1176 2.3424C68.7494 2.2528 68.3621 2.208 67.9558 2.208C66.9146 2.208 66.1464 2.4064 65.6512 2.8032C65.1559 3.2 64.9083 3.744 64.9083 4.4352C64.9083 4.9216 65.0353 5.3056 65.2893 5.5872C65.5432 5.8688 65.9305 6.0992 66.4511 6.2784C66.9844 6.4576 67.6574 6.6432 68.47 6.8352C69.4096 7.04 70.2223 7.2896 70.908 7.584C71.5936 7.8784 72.1206 8.2752 72.4888 8.7744C72.857 9.2608 73.0412 9.9136 73.0412 10.7328C73.0412 11.3856 72.9142 11.9552 72.6602 12.4416C72.419 12.9152 72.0761 13.312 71.6317 13.632C71.1873 13.9392 70.6667 14.1696 70.0699 14.3232C69.4731 14.464 68.8256 14.5344 68.1272 14.5344C67.4415 14.5344 66.7685 14.464 66.1083 14.3232C65.4607 14.1696 64.8449 13.952 64.2608 13.6704C63.6767 13.3888 63.1307 13.0368 62.6228 12.6144L63.4418 11.1552C63.6449 11.3728 63.9052 11.5904 64.2227 11.808C64.5528 12.0128 64.921 12.2048 65.3274 12.384C65.7464 12.5632 66.1972 12.7104 66.6797 12.8256C67.1622 12.928 67.6574 12.9792 68.1653 12.9792C69.1303 12.9792 69.8795 12.8064 70.4128 12.4608C70.9461 12.1024 71.2127 11.584 71.2127 10.9056C71.2127 10.3936 71.0603 9.984 70.7556 9.6768C70.4635 9.3696 70.0255 9.1136 69.4414 8.9088C68.8573 8.704 68.1462 8.4992 67.3082 8.2944C66.394 8.064 65.6258 7.8144 65.0036 7.5456C64.3814 7.264 63.9116 6.8992 63.5941 6.4512C63.2894 6.0032 63.137 5.4208 63.137 4.704C63.137 3.8336 63.3465 3.0976 63.7656 2.496C64.1846 1.8944 64.7623 1.44 65.4988 1.1328C66.2352 0.825599 67.0669 0.671999 67.9939 0.671999C68.6033 0.671999 69.1684 0.735999 69.689 0.863999C70.2223 0.991999 70.7175 1.1712 71.1746 1.4016C71.6317 1.632 72.0508 1.9072 72.4317 2.2272L71.6317 3.6288Z" fill="#222222"/>
<path d="M75.2958 14.4V0.767999H80.9335C81.5303 0.767999 82.0763 0.895999 82.5715 1.152C83.0667 1.3952 83.4984 1.728 83.8667 2.1504C84.2349 2.56 84.5206 3.0272 84.7238 3.552C84.9269 4.064 85.0285 4.5888 85.0285 5.1264C85.0285 5.8688 84.8634 6.5792 84.5333 7.2576C84.2032 7.9232 83.7397 8.4672 83.1429 8.8896C82.5461 9.2992 81.8477 9.504 81.0478 9.504H77.01V14.4H75.2958ZM77.01 7.968H80.9526C81.4224 7.968 81.8287 7.84 82.1715 7.584C82.5271 7.328 82.8001 6.9824 82.9905 6.5472C83.1937 6.112 83.2953 5.6384 83.2953 5.1264C83.2953 4.5888 83.181 4.1088 82.9524 3.6864C82.7239 3.2512 82.4255 2.912 82.0573 2.6688C81.689 2.4256 81.2827 2.304 80.8383 2.304H77.01V7.968Z" fill="#222222"/>
<path d="M86.2865 7.488C86.2865 6.656 86.4261 5.8432 86.7055 5.0496C86.9975 4.2432 87.4165 3.5136 87.9625 2.8608C88.5212 2.1952 89.2006 1.6704 90.0005 1.2864C90.8005 0.889599 91.7083 0.691199 92.7241 0.691199C93.9304 0.691199 94.9653 0.972799 95.8287 1.536C96.6921 2.0864 97.3334 2.7968 97.7524 3.6672L96.4001 4.5504C96.1335 3.9744 95.7906 3.52 95.3716 3.1872C94.9653 2.8416 94.5209 2.5984 94.0383 2.4576C93.5685 2.3168 93.1051 2.2464 92.648 2.2464C91.8988 2.2464 91.2322 2.4 90.6481 2.7072C90.0767 3.0144 89.5942 3.424 89.2006 3.936C88.8069 4.448 88.5085 5.024 88.3054 5.664C88.1149 6.2912 88.0197 6.9248 88.0197 7.5648C88.0197 8.2688 88.134 8.9472 88.3625 9.6C88.6038 10.2528 88.9339 10.8288 89.3529 11.328C89.7719 11.8272 90.2672 12.224 90.8385 12.5184C91.4099 12.8128 92.0321 12.96 92.7051 12.96C93.1749 12.96 93.6574 12.8768 94.1526 12.7104C94.6478 12.544 95.1113 12.288 95.543 11.9424C95.9747 11.584 96.3176 11.1232 96.5715 10.56L98 11.3472C97.7206 12.0256 97.2889 12.6016 96.7048 13.0752C96.1208 13.5488 95.4668 13.9072 94.7431 14.1504C94.032 14.3936 93.3273 14.5152 92.6289 14.5152C91.702 14.5152 90.8512 14.3168 90.0767 13.92C89.3021 13.5104 88.6292 12.9728 88.0578 12.3072C87.4991 11.6288 87.061 10.8736 86.7436 10.0416C86.4388 9.1968 86.2865 8.3456 86.2865 7.488Z" fill="#222222"/>
</svg>
