<svg width="136" height="36" viewBox="0 0 136 36" fill="none" xmlns="http://www.w3.org/2000/svg">
<path d="M31.4449 12.6C31.8158 12.6 31.9394 12.7337 31.9394 13.0937V21.24H36.1327C36.4933 21.24 36.6273 21.3737 36.6273 21.7337V22.4537C36.6273 22.8137 36.4933 22.9474 36.1327 22.9474H30.6103C30.2497 22.9474 30.1055 22.8137 30.1055 22.4537V13.0937C30.1055 12.7337 30.2497 12.6 30.6103 12.6H31.4449Z" fill="#222222"/>
<path d="M40.2849 16.1897C40.2849 13.8137 41.7892 12.384 44.4061 12.384C47.0231 12.384 48.5273 13.8137 48.5273 16.1897V19.3577C48.5273 21.7337 47.0128 23.1634 44.4061 23.1634C41.7995 23.1634 40.2849 21.7337 40.2849 19.3577V16.1897ZM46.7964 16.1897C46.7964 14.8525 45.9619 14.1325 44.4576 14.1325C42.9534 14.1325 42.1292 14.8628 42.1292 16.1897V19.3783C42.1292 20.7257 42.9534 21.4354 44.4576 21.4354C45.9619 21.4354 46.7964 20.6948 46.7964 19.3783V16.1897Z" fill="#222222"/>
<path d="M60.7982 17.28C61.2 17.28 61.2928 17.4137 61.2928 17.7737V19.728C61.3037 20.1883 61.2113 20.6453 61.0223 21.0652C60.8333 21.4853 60.5526 21.8577 60.2006 22.1554C59.3266 22.8502 58.2246 23.1949 57.1097 23.1223C54.4413 23.1223 52.9885 21.6925 52.9885 19.3165V16.128C52.9885 13.7828 54.4928 12.3428 57.1097 12.3428C59.1703 12.3428 60.5097 13.1554 61.0764 14.7805C61.1081 14.8416 61.1251 14.9092 61.1261 14.9779C61.127 15.0467 61.1118 15.1148 61.0819 15.1767C61.0519 15.2386 61.0078 15.2927 60.9532 15.3346C60.8986 15.3765 60.8349 15.4052 60.7673 15.4183L59.9637 15.696C59.6134 15.8194 59.4691 15.7474 59.3455 15.3874C59.1748 14.9481 58.8623 14.578 58.4574 14.3359C58.0525 14.0938 57.5783 13.9932 57.1097 14.0503C55.5952 14.0503 54.7709 14.7805 54.7709 16.1074V19.3783C54.7709 20.7257 55.6055 21.4354 57.1097 21.4354C58.614 21.4354 59.5413 20.7463 59.5413 19.7383V18.9771H57.3055C56.9346 18.9771 56.8006 18.8331 56.8006 18.4731V17.7737C56.8006 17.4137 56.9346 17.28 57.3055 17.28H60.7982Z" fill="#222222"/>
<path d="M65.5479 16.1897C65.5479 13.8137 67.0521 12.384 69.6691 12.384C72.286 12.384 73.7903 13.8137 73.7903 16.1897V19.3577C73.7903 21.7337 72.2757 23.1634 69.6691 23.1634C67.0624 23.1634 65.5479 21.7337 65.5479 19.3577V16.1897ZM72.0491 16.1897C72.0491 14.8525 71.2145 14.1325 69.7206 14.1325C68.2266 14.1325 67.3818 14.8628 67.3818 16.1897V19.3783C67.3818 20.7257 68.2163 21.4354 69.7206 21.4354C71.2248 21.4354 72.0491 20.6948 72.0491 19.3783V16.1897Z" fill="#222222"/>
<path d="M78.6431 12.8983C78.6431 12.672 78.7152 12.6 78.9419 12.6H79.4158C79.6425 12.6 79.694 12.672 79.694 12.8983V22.6491C79.694 22.8754 79.694 22.9474 79.4158 22.9474H78.9419C78.7152 22.9474 78.6431 22.8754 78.6431 22.6491V12.8983Z" fill="#222222"/>
<path d="M89.08 12.6C89.9381 12.6 90.7609 12.9402 91.3676 13.546C91.9744 14.1516 92.3152 14.9731 92.3152 15.8297C92.3152 16.6863 91.9744 17.5078 91.3676 18.1134C90.7609 18.7192 89.9381 19.0594 89.08 19.0594H85.9891V22.6491C85.9891 22.8754 85.9376 22.9474 85.7213 22.9474H85.237C85.0207 22.9474 84.9382 22.8754 84.9382 22.6491V12.8983C84.9382 12.672 85.0207 12.6 85.237 12.6H89.08ZM88.9873 18.0411C89.2823 18.0411 89.5744 17.9831 89.8469 17.8705C90.1193 17.7577 90.367 17.5926 90.5755 17.3844C90.7841 17.1762 90.9495 16.9289 91.0625 16.657C91.1753 16.3849 91.2334 16.0933 91.2334 15.7988C91.2334 15.5044 91.1753 15.2128 91.0625 14.9407C90.9495 14.6687 90.7841 14.4215 90.5755 14.2133C90.367 14.0051 90.1193 13.8399 89.8469 13.7272C89.5744 13.6146 89.2823 13.5565 88.9873 13.5565H85.8964V18.0411H88.9873Z" fill="#222222"/>
<path d="M100.362 12.3943C101.157 12.3067 101.96 12.4775 102.65 12.8814C103.34 13.2854 103.882 13.9009 104.195 14.6366C104.277 14.8012 104.195 14.9349 104.03 15.0172L103.576 15.2229C103.391 15.2949 103.319 15.2846 103.205 15.0892C102.972 14.5432 102.571 14.0855 102.059 13.7822C101.548 13.479 100.954 13.3459 100.362 13.4023C98.6206 13.4023 97.6727 14.0914 97.6727 15.3257C97.6626 15.7029 97.7895 16.0711 98.03 16.3622C98.2705 16.6533 98.6084 16.8478 98.9812 16.9097C99.5353 17.0901 100.11 17.2007 100.692 17.2389C101.396 17.2763 102.09 17.4185 102.752 17.6606C103.26 17.8209 103.697 18.1507 103.99 18.5946C104.282 19.0386 104.413 19.5695 104.359 20.0983C104.359 22.0217 102.958 23.184 100.382 23.184C99.5376 23.2805 98.6851 23.0851 97.9671 22.6302C97.2491 22.1755 96.7088 21.4887 96.4364 20.6846C96.4181 20.648 96.4084 20.6077 96.4075 20.5668C96.4067 20.5259 96.415 20.4853 96.4317 20.448C96.4484 20.4107 96.4733 20.3774 96.5044 20.3508C96.5354 20.3241 96.572 20.3046 96.6115 20.2937L97.0649 20.1292C97.1005 20.1145 97.1389 20.1076 97.1775 20.1086C97.216 20.1096 97.2539 20.1187 97.2888 20.1351C97.3237 20.1516 97.3548 20.175 97.38 20.2041C97.4054 20.2332 97.4243 20.2672 97.4358 20.304C97.6662 20.885 98.0761 21.3777 98.6059 21.7107C99.1357 22.0435 99.758 22.1994 100.382 22.1554C102.33 22.1554 103.288 21.4766 103.288 20.0983C103.306 19.736 103.195 19.379 102.974 19.0908C102.753 18.8027 102.437 18.602 102.082 18.5246C101.549 18.3659 101 18.2692 100.444 18.2366L99.3315 18.0926C98.9833 18.0188 98.6394 17.9261 98.3012 17.8149C97.9672 17.7142 97.6558 17.55 97.3843 17.3314C97.1109 17.0844 96.8955 16.7803 96.753 16.4408C96.6106 16.1013 96.5447 15.7347 96.56 15.3669C96.6321 13.5669 97.9818 12.3943 100.362 12.3943Z" fill="#222222"/>
<path d="M109.913 19.4297C109.956 20.1571 110.276 20.8404 110.808 21.34C111.34 21.8395 112.042 22.1177 112.772 22.1177C113.501 22.1177 114.204 21.8395 114.736 21.34C115.267 20.8404 115.587 20.1571 115.631 19.4297V12.8983C115.631 12.672 115.703 12.6 115.93 12.6H116.404C116.63 12.6 116.702 12.672 116.702 12.8983V19.4194C116.702 21.7543 115.322 23.1634 112.777 23.1634C110.232 23.1634 108.852 21.7543 108.852 19.4194V12.8983C108.852 12.672 108.924 12.6 109.14 12.6H109.624C109.841 12.6 109.913 12.672 109.913 12.8983V19.4297Z" fill="#222222"/>
<path d="M130.921 12.6C131.147 12.6 131.219 12.672 131.219 12.8983V22.6492C131.219 22.8755 131.147 22.9474 130.921 22.9474H130.488C130.271 22.9474 130.199 22.8755 130.199 22.6492V16.7143C130.199 15.8508 130.258 14.9883 130.375 14.1326H130.313C129.991 14.915 129.615 15.6745 129.19 16.4057L126.975 20.304C126.948 20.3717 126.9 20.4295 126.84 20.4699C126.779 20.5103 126.708 20.5313 126.635 20.5303H126.346C126.272 20.5307 126.2 20.5094 126.137 20.4693C126.075 20.4291 126.026 20.3717 125.996 20.304L123.75 16.3646C123.351 15.6439 123.007 14.8944 122.719 14.1223H122.658C122.763 14.9858 122.818 15.8547 122.822 16.7246V22.6492C122.822 22.8755 122.75 22.9474 122.524 22.9474H122.122C121.895 22.9474 121.823 22.8755 121.823 22.6492V12.8983C121.823 12.672 121.895 12.6 122.122 12.6H122.493C122.577 12.5922 122.663 12.6106 122.736 12.653C122.81 12.6954 122.869 12.7596 122.905 12.8366L126.511 19.2343L130.096 12.8983C130.21 12.6823 130.271 12.6515 130.498 12.6515L130.921 12.6Z" fill="#222222"/>
<path d="M13.1156 21.384V28.8205C13.1156 29.1057 13.0022 29.3791 12.8003 29.5806C12.5984 29.7822 12.3246 29.8954 12.039 29.8954C11.7535 29.8954 11.4796 29.7822 11.2777 29.5806C11.0757 29.3791 10.9623 29.1057 10.9623 28.8205V21.3943C11.2621 21.6128 11.6215 21.7348 11.9926 21.744C12.3971 21.7555 12.7935 21.6285 13.1156 21.384ZM22.2853 19.2343C22.0121 19.2343 21.75 19.3427 21.5568 19.5355C21.3636 19.7284 21.255 19.9901 21.255 20.2628V21.5588C21.255 21.844 21.3685 22.1173 21.5704 22.3188C21.7722 22.5204 22.0461 22.6337 22.3317 22.6337C22.6173 22.6337 22.8912 22.5204 23.093 22.3188C23.2949 22.1173 23.4084 21.844 23.4084 21.5588V20.3143C23.4164 20.1668 23.3925 20.0193 23.3383 19.8819C23.2841 19.7444 23.201 19.6202 23.0943 19.5177C22.9878 19.4153 22.8603 19.3369 22.7208 19.288C22.5812 19.2391 22.4327 19.2208 22.2853 19.2343ZM8.62352 24.2023C8.25278 24.1912 7.89389 24.0694 7.59322 23.8526V31.3097C7.59322 31.5961 7.70719 31.8709 7.91007 32.0734C8.11295 32.2759 8.38811 32.3897 8.67503 32.3897C8.96195 32.3897 9.23712 32.2759 9.43999 32.0734C9.64288 31.8709 9.75685 31.5961 9.75685 31.3097V23.904C9.42041 24.1211 9.02344 24.2256 8.62352 24.2023ZM18.9266 17.0023C18.7869 16.9953 18.6474 17.0168 18.5164 17.0653C18.3854 17.1139 18.2657 17.1885 18.1644 17.2847C18.0633 17.381 17.9828 17.4967 17.9278 17.625C17.8729 17.7532 17.8445 17.8914 17.8447 18.0308V23.76C17.8447 24.0464 17.9587 24.3212 18.1616 24.5237C18.3645 24.7262 18.6396 24.84 18.9266 24.84C19.2135 24.84 19.4887 24.7262 19.6915 24.5237C19.8944 24.3212 20.0084 24.0464 20.0084 23.76V18.1028C20.0166 17.9544 19.9925 17.806 19.9377 17.6677C19.8829 17.5295 19.7988 17.4047 19.691 17.3021C19.5833 17.1994 19.4546 17.1213 19.3137 17.0731C19.1729 17.0249 19.0232 17.0077 18.875 17.0228L18.9266 17.0023ZM15.5059 19.2034C15.1178 19.2007 14.7401 19.0786 14.4241 18.8537V26.3314C14.4241 26.6179 14.5381 26.8926 14.7409 27.0951C14.9439 27.2976 15.219 27.4114 15.5059 27.4114C15.7929 27.4114 16.068 27.2976 16.2709 27.0951C16.4738 26.8926 16.5878 26.6179 16.5878 26.3314V18.864C16.261 19.107 15.8619 19.2337 15.4544 19.224L15.5059 19.2034ZM6.28473 24.9325V4.04226C6.28202 3.78762 6.17878 3.54434 5.99745 3.36524C5.81612 3.18613 5.57133 3.08568 5.31625 3.08569H5.08958C4.8345 3.08568 4.58971 3.18613 4.40837 3.36524C4.22704 3.54434 4.1238 3.78762 4.12109 4.04226V24.9325C4.12109 25.189 4.22314 25.4349 4.40476 25.6162C4.58638 25.7976 4.83272 25.8994 5.08958 25.8994H5.31625C5.57311 25.8994 5.81945 25.7976 6.00107 25.6162C6.1827 25.4349 6.28473 25.189 6.28473 24.9325ZM8.73685 23.4103H8.51019C8.25333 23.4103 8.00699 23.3084 7.82536 23.1271C7.64374 22.9458 7.5417 22.6998 7.5417 22.4434V6.53141C7.54442 6.27677 7.64765 6.03348 7.82898 5.85438C8.01031 5.67528 8.2551 5.57483 8.51019 5.57484H8.73685C8.99193 5.57483 9.23672 5.67528 9.41806 5.85438C9.59939 6.03348 9.70263 6.27677 9.70534 6.53141V22.464C9.70534 22.7204 9.6033 22.9663 9.42167 23.1477C9.24005 23.329 8.99371 23.4308 8.73685 23.4308V23.4103ZM12.1472 20.9623H11.9102C11.6561 20.9623 11.4123 20.8615 11.2327 20.6821C11.053 20.5027 10.952 20.2594 10.952 20.0057V8.99998C10.9507 8.8735 10.9745 8.748 11.022 8.63075C11.0695 8.51351 11.1398 8.40684 11.2289 8.31693C11.3181 8.22701 11.4242 8.15562 11.5411 8.10691C11.6581 8.0582 11.7835 8.03311 11.9102 8.03312H12.1472C12.4023 8.03584 12.6459 8.13889 12.8253 8.31992C13.0048 8.50095 13.1053 8.74533 13.1053 8.99998V20.0057C13.1053 20.2594 13.0044 20.5027 12.8247 20.6821C12.645 20.8615 12.4013 20.9623 12.1472 20.9623ZM15.5575 18.4423H15.3411C15.086 18.4423 14.8412 18.3419 14.6599 18.1627C14.4785 17.9836 14.3753 17.7404 14.3726 17.4857V11.5611C14.3642 11.4291 14.3829 11.2967 14.4278 11.1721C14.4727 11.0477 14.5427 10.9336 14.6335 10.8372C14.7243 10.7407 14.8339 10.664 14.9557 10.6115C15.0773 10.5592 15.2085 10.5322 15.3411 10.5325H15.5678C15.8246 10.5325 16.071 10.6344 16.2526 10.8157C16.4342 10.9971 16.5362 11.243 16.5362 11.4994V17.4651C16.5376 17.593 16.5136 17.7198 16.4655 17.8383C16.4175 17.9568 16.3464 18.0646 16.2562 18.1555C16.1662 18.2463 16.059 18.3184 15.9407 18.3677C15.8226 18.417 15.6958 18.4423 15.5678 18.4423H15.5575ZM18.9781 16.2308H18.7514C18.4945 16.2308 18.2482 16.129 18.0666 15.9477C17.8849 15.7663 17.7829 15.5204 17.7829 15.264V13.7314C17.7856 13.4767 17.8888 13.2335 18.0702 13.0544C18.2515 12.8752 18.4963 12.7748 18.7514 12.7748H18.9781C19.2332 12.7748 19.478 12.8752 19.6593 13.0544C19.8406 13.2335 19.9439 13.4767 19.9466 13.7314V15.264C19.9466 15.5187 19.846 15.763 19.6665 15.9441C19.4871 16.1251 19.2435 16.2282 18.9884 16.2308H18.9781Z" fill="#222222"/>
</svg>
